<?xml version="1.0" encoding="UTF-8"?>
<svg version="1.1" xmlns="http://www.w3.org/2000/svg" width="2298" height="800">
<path d="M0 0 C758.34 0 1516.68 0 2298 0 C2298 329.01 2298 658.02 2298 997 C1539.66 997 781.32 997 0 997 C0 667.99 0 338.98 0 0 Z " fill="transparent" transform="translate(0,0)"/>
<path d="M0 0 C0.23185425 10.71776496 0.40945696 21.43493225 0.51812172 32.15469551 C0.57028137 37.13267804 0.6410001 42.10894343 0.75439453 47.0859375 C0.86317723 51.89067262 0.92286542 56.69375837 0.94877243 61.49962997 C0.96722914 63.33147025 1.00327537 65.1632216 1.05730057 66.99435806 C1.46228455 81.29158912 1.46228455 81.29158912 -2.01799011 85.35765076 C-4.63210241 86.97260637 -7.09622235 88.01126444 -10 89 C-11.33681901 89.65297297 -12.66662514 90.3206412 -13.98657227 91.00708008 C-15.2606651 91.60000593 -16.53733861 92.18741478 -17.81640625 92.76953125 C-19.24585831 93.43243566 -20.67530136 94.09535951 -22.10473633 94.75830078 C-22.83350983 95.09379944 -23.56228333 95.4292981 -24.31314087 95.77496338 C-28.12821912 97.53470167 -31.93124774 99.32008194 -35.734375 101.10546875 C-36.47033401 101.45089722 -37.20629303 101.79632568 -37.96455383 102.15222168 C-73.5380406 118.87864552 -105.09801181 143.69934951 -135.30859375 168.60839844 C-137.73677601 170.60618119 -140.18286415 172.58181424 -142.625 174.5625 C-152.35898261 182.54524136 -161.86488491 190.76203281 -171.0859375 199.33203125 C-173.27451384 201.33578144 -175.48099713 203.29666586 -177.72143555 205.24072266 C-190.23582392 216.17803161 -202.04486954 227.88169787 -213.77612305 239.64575195 C-216.08852723 241.96358838 -218.40632898 244.27593304 -220.72460938 246.58789062 C-222.22427957 248.08822064 -223.72364006 249.5888603 -225.22265625 251.08984375 C-225.90191666 251.76707993 -226.58117706 252.4443161 -227.28102112 253.14207458 C-231.14654293 257.02638394 -234.83677671 261.01148611 -238.40724182 265.16912842 C-241.13521913 268.30493157 -244.01623949 271.29643543 -246.875 274.3125 C-251.76849848 279.51103431 -256.4111012 284.81990353 -260.8671875 290.40234375 C-263.11129275 293.13554886 -265.46867753 295.72136593 -267.875 298.3125 C-272.11797039 302.92271357 -275.99876663 307.71926958 -279.82592773 312.67163086 C-282.92509117 316.67039371 -286.13342735 320.54455195 -289.4375 324.375 C-295.1572428 331.03609582 -300.36102315 338.04924534 -305.58300781 345.10253906 C-307.66421724 347.88943769 -309.80108505 350.6301562 -311.9375 353.375 C-353.56030953 407.15351422 -389.20270866 465.96430903 -421 526 C-421.4832373 526.90862793 -421.96647461 527.81725586 -422.46435547 528.75341797 C-438.3487463 558.66415045 -453.35506785 589.00314632 -467 620 C-467.32442078 620.73605469 -467.64884155 621.47210937 -467.98309326 622.23046875 C-481.46331747 652.838382 -494.15339547 683.72333844 -506 715 C-508.5005795 712.57787659 -510.72755883 710.17802752 -512.7421875 707.33984375 C-513.24355225 706.63867432 -513.74491699 705.93750488 -514.26147461 705.21508789 C-514.79393799 704.46348389 -515.32640137 703.71187988 -515.875 702.9375 C-517.03955133 701.30931385 -518.20494346 699.68172881 -519.37109375 698.0546875 C-519.97034668 697.21776367 -520.56959961 696.38083984 -521.18701172 695.51855469 C-524.07253004 691.51007004 -527.00291018 687.5351339 -529.9375 683.5625 C-530.51806152 682.77609131 -531.09862305 681.98968262 -531.69677734 681.17944336 C-532.87556428 679.58314904 -534.0546008 677.987039 -535.23388672 676.39111328 C-538.74312623 671.64000853 -542.24461276 666.88318709 -545.74755859 662.12744141 C-548.67420749 658.15468511 -551.60270774 654.18332154 -554.53515625 650.21484375 C-560.77471072 641.76659743 -566.9706422 633.28993416 -573.10791016 624.76708984 C-578.75718083 616.93122514 -584.49312892 609.16007146 -590.23388672 601.39111328 C-593.74312623 596.64000853 -597.24461276 591.88318709 -600.74755859 587.12744141 C-603.67420749 583.15468511 -606.60270774 579.18332154 -609.53515625 575.21484375 C-615.77471072 566.76659743 -621.9706422 558.28993416 -628.10791016 549.76708984 C-633.75718083 541.93122514 -639.49312892 534.16007146 -645.23388672 526.39111328 C-648.74312623 521.64000853 -652.24461276 516.88318709 -655.74755859 512.12744141 C-658.67420749 508.15468511 -661.60270774 504.18332154 -664.53515625 500.21484375 C-670.77471072 491.76659743 -676.9706422 483.28993416 -683.10791016 474.76708984 C-688.74432519 466.94905666 -694.46677708 459.1952285 -700.19433594 451.44384766 C-703.31939357 447.21428751 -706.44124051 442.98236339 -709.5625 438.75 C-710.41992798 437.5889978 -710.41992798 437.5889978 -711.29467773 436.40454102 C-711.83809814 435.66776123 -712.38151855 434.93098145 -712.94140625 434.171875 C-713.41263916 433.5334668 -713.88387207 432.89505859 -714.36938477 432.23730469 C-716.60181214 429.17427662 -718.7969713 426.08424018 -721 423 C-721.33 522.66 -721.66 622.32 -722 725 C-792.95 725 -863.9 725 -937 725 C-937 527.66 -937 330.32 -937 127 C-866.05 127 -795.1 127 -722 127 C-710.63571429 141.77357143 -710.63571429 141.77357143 -705.75 148.625 C-699.49384177 157.33990221 -693.1415514 165.9810167 -686.76611328 174.60888672 C-683.25687377 179.35999147 -679.75538724 184.11681291 -676.25244141 188.87255859 C-673.32579251 192.84531489 -670.39729226 196.81667846 -667.46484375 200.78515625 C-661.22528928 209.23340257 -655.0293578 217.71006584 -648.89208984 226.23291016 C-643.24281917 234.06877486 -637.50687108 241.83992854 -631.76611328 249.60888672 C-628.25687377 254.35999147 -624.75538724 259.11681291 -621.25244141 263.87255859 C-618.32579251 267.84531489 -615.39729226 271.81667846 -612.46484375 275.78515625 C-606.22528928 284.23340257 -600.0293578 292.71006584 -593.89208984 301.23291016 C-588.24281917 309.06877486 -582.50687108 316.83992854 -576.76611328 324.60888672 C-573.26340096 329.35115441 -569.76818272 334.09894927 -566.2722168 338.84619141 C-563.23510042 342.9695507 -560.1944503 347.09023841 -557.1484375 351.20703125 C-556.51679687 352.06167969 -555.88515625 352.91632813 -555.234375 353.796875 C-554.02978049 355.42662052 -552.82411857 357.05557784 -551.6171875 358.68359375 C-548.63299674 362.72351237 -545.7427895 366.79215953 -543 371 C-542.64921387 370.38817871 -542.29842773 369.77635742 -541.93701172 369.14599609 C-529.61311918 347.70394011 -516.77916342 326.84341656 -502 307 C-501.48695313 306.30680664 -500.97390625 305.61361328 -500.4453125 304.89941406 C-490.50598868 291.47249756 -480.28612259 278.32083311 -469.40478516 265.64306641 C-467.98400818 263.98129563 -466.57497247 262.31016022 -465.16796875 260.63671875 C-456.37407279 250.21712277 -447.20468908 240.09755876 -437.48828125 230.52734375 C-435.05696167 228.11809004 -432.78393108 225.63167603 -430.55859375 223.03125 C-426.98333021 218.89052637 -423.09173806 215.19346822 -419.0625 211.5 C-417.64617322 210.18853837 -416.23079672 208.87604967 -414.81640625 207.5625 C-414.15141113 206.94503906 -413.48641602 206.32757813 -412.80126953 205.69140625 C-410.65255048 203.67374217 -408.56557522 201.60253383 -406.5 199.5 C-403.49925069 196.45338771 -400.36322915 193.6269426 -397.12109375 190.83984375 C-394.77508942 188.80491181 -392.4826355 186.71709033 -390.1875 184.625 C-385.86874343 180.72758553 -381.42237949 177.02699645 -376.8984375 173.37109375 C-374.37049623 171.30308789 -371.88569003 169.19335876 -369.41137695 167.06176758 C-362.78666262 161.36768955 -355.91120434 156.08970963 -348.890625 150.89453125 C-345.46530458 148.35895869 -342.10487562 145.7529859 -338.75 143.125 C-320.35496849 128.92933052 -300.80061216 116.13857828 -281 104 C-280.24090332 103.53335938 -279.48180664 103.06671875 -278.69970703 102.5859375 C-266.56671198 95.14854328 -254.23781075 88.14584318 -241.68652344 81.43945312 C-239.15140337 80.0811227 -236.62598772 78.70619781 -234.1015625 77.328125 C-209.61676917 64.09157757 -183.87260622 53.19455383 -158 43 C-157.11054687 42.64389648 -156.22109375 42.28779297 -155.3046875 41.92089844 C-110.112693 23.8337355 -62.54975287 11.935679 -15 2 C-13.96633301 1.77779785 -12.93266602 1.5555957 -11.86767578 1.32666016 C-10.99481934 1.14280762 -10.12196289 0.95895508 -9.22265625 0.76953125 C-8.50988525 0.61718018 -7.79711426 0.4648291 -7.06274414 0.30786133 C-4.68719433 -0.04668576 -2.39895958 -0.01946759 0 0 Z " fill="#fff" transform="translate(1898,0)"/>
<path d="M0 0 C0.8533493 0.00304138 1.70669861 0.00608276 2.58590698 0.00921631 C19.54108756 0.09746632 35.9528735 1.64236854 52.6875 4.4375 C53.98478027 4.65180664 55.28206055 4.86611328 56.61865234 5.08691406 C75.34762063 8.23471635 93.58150594 12.71568101 111.6875 18.4375 C112.79464355 18.78683594 113.90178711 19.13617188 115.04248047 19.49609375 C131.15112142 24.65690816 146.51389299 30.97054681 161.6875 38.4375 C162.86795898 39.01733643 162.86795898 39.01733643 164.07226562 39.60888672 C180.66804782 47.85942374 196.29121614 57.76954413 210.6875 69.4375 C211.6053125 70.16324219 212.523125 70.88898438 213.46875 71.63671875 C220.8667267 77.55722597 227.8208845 83.91624681 234.6875 90.4375 C235.51507812 91.22253906 236.34265625 92.00757812 237.1953125 92.81640625 C242.84539344 98.31883699 247.80685022 104.24982876 252.6875 110.4375 C253.46867188 111.40171875 254.24984375 112.3659375 255.0546875 113.359375 C276.05484874 139.79408276 290.07172951 169.94875454 297.9987793 202.63232422 C298.4668485 204.53878122 298.95068137 206.44142253 299.44848633 208.34033203 C305.10321562 230.04978469 306.07179726 251.80621351 306.0625 274.125 C306.06508316 275.70997284 306.06508316 275.70997284 306.06771851 277.32696533 C306.0651703 291.14493921 305.37019831 304.7221246 303.6875 318.4375 C303.53751053 319.68197906 303.53751053 319.68197906 303.38449097 320.95159912 C299.40926439 353.55879053 288.65186987 384.33583323 273.6875 413.4375 C273.2838623 414.2227002 272.88022461 415.00790039 272.46435547 415.81689453 C262.53604797 434.85010235 249.23409124 452.45697559 234.71484375 468.2265625 C232.9260666 470.17732911 231.20906881 472.16730395 229.5 474.1875 C221.54421288 483.28773909 212.86820602 491.81822393 203.37890625 499.3046875 C200.52039493 501.56992289 197.76695545 503.93656787 195 506.3125 C158.67662169 536.55860781 92.30722439 574.4375 43.6875 574.4375 C43.4305209 550.69845873 43.23655427 526.95962593 43.11756611 503.21947384 C43.06084853 492.19638 42.98352741 481.17415041 42.85766602 470.15161133 C42.7480147 460.54411847 42.6770575 450.93725146 42.65252656 441.32915026 C42.6381864 436.2414668 42.60450105 431.1555737 42.52446938 426.06846428 C42.44972472 421.27854984 42.4267853 416.49116015 42.44331551 411.70071793 C42.44029242 409.94421848 42.41844858 408.18763355 42.37623978 406.43163872 C42.07262481 393.14737836 42.07262481 393.14737836 46.04894066 388.9371357 C48.85902187 387.14504019 51.65889732 385.81515608 54.6875 384.4375 C79.094038 366.34578281 93.22343648 333.58209376 98.02636719 304.37695312 C102.80210396 270.89919701 99.96797768 237.05485236 80.6875 208.4375 C77.26812488 203.88047564 73.52806093 199.64112725 69.6875 195.4375 C69.03136719 194.69886719 68.37523437 193.96023437 67.69921875 193.19921875 C51.9813023 176.40427163 28.55472203 166.01667742 6.375 161.1875 C5.69010498 161.03635742 5.00520996 160.88521484 4.29956055 160.72949219 C-14.30667025 157.00782597 -33.11532834 157.16039457 -51.9980545 157.23493958 C-55.4119958 157.24650941 -58.82590701 157.24687541 -62.23986816 157.24829102 C-72.15992974 157.2586981 -82.07996672 157.28662036 -92 157.3125 C-114.213125 157.35375 -136.42625 157.395 -159.3125 157.4375 C-159.3125 201.9875 -159.3125 246.5375 -159.3125 292.4375 C-219.3725 292.4375 -279.4325 292.4375 -341.3125 292.4375 C-341.3125 197.3975 -341.3125 102.3575 -341.3125 4.4375 C-309.08529297 4.38142578 -309.08529297 4.38142578 -276.20703125 4.32421875 C-262.58528038 4.29393819 -248.963537 4.26292879 -235.34179688 4.22851562 C-228.18286188 4.210468 -221.02392646 4.19260442 -213.86499023 4.17504883 C-212.51927918 4.1717373 -212.51927918 4.1717373 -211.14638203 4.16835886 C-196.70069064 4.13307867 -182.25499929 4.10816975 -167.80928091 4.08715298 C-152.96191234 4.0653187 -138.11459923 4.0321966 -123.2672779 3.98879844 C-114.12051369 3.96241247 -104.97381844 3.94462125 -95.8270181 3.93815396 C-89.53760834 3.93285981 -83.24828504 3.91650973 -76.95892177 3.89183434 C-73.34117716 3.87795567 -69.72358681 3.86859648 -66.10581398 3.87249184 C-51.80072575 3.88486127 -37.9128883 3.57154311 -23.79593945 1.12089252 C-15.93511794 -0.20240542 -7.94873355 -0.0612327 0 0 Z " fill="#fff" transform="translate(523.3125,20.5625)"/>
<path d="M0 0 C60.39 0 120.78 0 183 0 C183 33.33 183 66.66 183 101 C243.06 101 303.12 101 365 101 C365.165 123.295625 365.33 145.59125 365.5 168.5625 C365.55220703 175.53705322 365.60441406 182.51160645 365.65820312 189.69750977 C365.72167969 198.3807373 365.72167969 198.3807373 365.75134277 202.47789001 C365.77162622 205.26903209 365.79252337 208.06016875 365.81384277 210.8513031 C365.84137679 214.45897415 365.8677314 218.06665233 365.89337826 221.67433727 C365.90703174 223.55923409 365.92176142 225.44412304 365.9365921 227.32901096 C366.03762561 241.88649736 366 256.44105393 366 271 C305.94 271 245.88 271 184 271 C184 311.59 184 352.18 184 394 C123.61 394 63.22 394 1 394 C1 353.74 1 313.48 1 272 C-59.06 272 -119.12 272 -181 272 C-181.165 251.189375 -181.33 230.37875 -181.5 208.9375 C-181.55220703 202.45343506 -181.60441406 195.96937012 -181.65820312 189.28881836 C-181.72167969 181.14953613 -181.72167969 181.14953613 -181.75134277 177.29640198 C-181.77161722 174.69894476 -181.7924688 172.10149199 -181.81384277 169.50404358 C-181.9983021 147.00129197 -182 124.50487004 -182 102 C-121.94 102 -61.88 102 0 102 C0 68.34 0 34.68 0 0 Z " fill="#bddbd1" transform="translate(182,329)"/>
<path d="M0 0 C3.63664093 1.21221364 4.06931302 2.22691897 6.125 5.375 C20.32648241 26.27697307 38.89298486 43.86746261 59 59 C59.59393555 59.45084961 60.18787109 59.90169922 60.79980469 60.36621094 C75.79737493 71.72116874 91.63536273 81.73931415 108 91 C108.86947266 91.49226074 109.73894531 91.98452148 110.63476562 92.49169922 C155.87706659 117.9266228 205.68411786 137.25420956 256 150 C257.87534424 150.47663086 257.87534424 150.47663086 259.78857422 150.96289062 C297.43233284 160.47926494 335.2150144 167.51003485 373.8125 171.75 C375.26002151 171.91050339 375.26002151 171.91050339 376.73678589 172.07424927 C399.60804458 174.58835411 422.28123147 175.21282451 445.27246094 175.24023438 C448.39562915 175.24458038 451.51851508 175.25834792 454.64160156 175.28125 C510.75100389 175.68381452 566.05159692 169.07580257 619 150 C620.53434377 149.47029694 622.06938238 148.94259702 623.60546875 148.41796875 C636.4399194 143.9406142 650.32974193 138.38503232 661.5546875 130.6640625 C664 129 664 129 666 129 C664.50680466 141.21541726 655.73859595 150.08116802 647.46386719 158.50097656 C646.15461792 159.84166878 644.87587953 161.21199959 643.6015625 162.5859375 C609.89696011 198.13106425 558.41389525 218.06557581 512 230 C511.23284668 230.20189941 510.46569336 230.40379883 509.67529297 230.61181641 C488.66830466 236.09989745 467.05745682 239.77026735 445.43901062 241.77197266 C443.78831329 241.92629922 442.13801573 242.08495273 440.4881134 242.24755859 C424.34553673 243.82961989 408.34019584 244.36238817 392.125 244.3125 C390.31215012 244.31026428 390.31215012 244.31026428 388.462677 244.3079834 C355.37485056 244.23524202 322.72921339 241.84182659 290 237 C288.69949707 236.81179688 287.39899414 236.62359375 286.05908203 236.4296875 C237.97395416 229.4517302 189.10407054 219.55248995 143.1796875 203.38671875 C139.66987592 202.17386449 136.11454405 201.19044603 132.53515625 200.203125 C124.38670397 197.89703074 116.4878664 195.03625976 108.5625 192.0625 C107.43190659 191.64023636 107.43190659 191.64023636 106.2784729 191.20944214 C73.14133012 178.81073675 40.33934382 164.91492204 9.53857422 147.43261719 C7.04960071 146.02799163 4.54517843 144.65564662 2.03515625 143.2890625 C-23.82468305 129.05858953 -48.3960963 111.96429209 -71 93 C-69.44221201 87.93718904 -66.34822776 84.47906713 -63 80.5 C-61.81375222 79.06622164 -60.62887096 77.63131165 -59.4453125 76.1953125 C-58.85911133 75.48536133 -58.27291016 74.77541016 -57.66894531 74.04394531 C-55.34542112 71.19834196 -53.10056478 68.29750005 -50.875 65.375 C-46.10507937 59.12555633 -41.2570348 52.94097621 -36.39111328 46.76611328 C-34.09125763 43.84628952 -31.79584055 40.92298107 -29.5 38 C-28.5833549 36.83331639 -27.66668823 35.66664973 -26.75 34.5 C-26.29625 33.9225 -25.8425 33.345 -25.375 32.75 C-21.25 27.5 -21.25 27.5 -19.87280273 25.74731445 C-18.96331629 24.58971273 -18.053972 23.4319993 -17.14477539 22.27416992 C-14.74445209 19.21784158 -12.3411251 16.1639359 -9.93359375 13.11328125 C-9.43214844 12.47712891 -8.93070313 11.84097656 -8.4140625 11.18554688 C-7.45273119 9.96608031 -6.49053565 8.74729439 -5.52734375 7.52929688 C-3.58750636 5.06697352 -1.74001939 2.61002909 0 0 Z " fill="#bddbd1" transform="translate(1600,475)"/>
<path d="M0 0 C93.06 0 186.12 0 282 0 C278.29604764 4.93860315 274.63963517 9.71799403 270.625 14.375 C266.73532063 18.93086393 262.93018282 23.53671963 259.20703125 28.23046875 C256.43126687 31.71368458 253.62308435 35.16985828 250.8125 38.625 C249.97936279 39.64944214 249.97936279 39.64944214 249.12939453 40.69458008 C247.98822213 42.09757779 246.8469451 43.50049041 245.70556641 44.90332031 C242.43505374 48.92381313 239.16735701 52.94659589 235.90039062 56.9699707 C233.05872345 60.46896763 230.21350282 63.96499774 227.36328125 67.45703125 C226.76902344 68.18599609 226.17476562 68.91496094 225.5625 69.66601562 C224.42165367 71.06533495 223.27977591 72.46381418 222.13671875 73.86132812 C221.62367188 74.49103516 221.110625 75.12074219 220.58203125 75.76953125 C220.13061768 76.32229736 219.6792041 76.87506348 219.21411133 77.44458008 C218.07062785 78.90951739 217.03084667 80.45372999 216 82 C213.11564631 82.29417206 210.44597346 82.39098728 207.55929565 82.36076355 C206.67553949 82.36332682 205.79178334 82.3658901 204.88124669 82.36853105 C201.90225706 82.37349593 198.92376761 82.3569316 195.94482422 82.34057617 C193.81647758 82.33973048 191.68813006 82.3402039 189.55978394 82.34190369 C183.76662267 82.34276734 177.97364631 82.32508181 172.18052816 82.30418181 C166.13200909 82.28547652 160.08348616 82.28366944 154.03494263 82.28010559 C142.57436116 82.27076701 131.11386515 82.24612874 119.65332139 82.21605712 C106.60879517 82.18256945 93.56426496 82.16604129 80.51970649 82.15097082 C53.67974597 82.11958073 26.83990267 82.06454605 0 82 C0 54.94 0 27.88 0 0 Z " fill="#bddbd1" transform="translate(1985,0)"/>
</svg>